<mxfile host="Electron" agent="Mozilla/5.0 (Macintosh; Intel Mac OS X 10_15_7) AppleWebKit/537.36 (KHTML, like Gecko) draw.io/24.7.17 Chrome/128.0.6613.36 Electron/32.0.1 Safari/537.36" version="24.7.17">
  <diagram name="Страница — 1" id="ZxUDvak5gK3-czlqdzK2">
    <mxGraphModel dx="1735" dy="1133" grid="1" gridSize="10" guides="1" tooltips="1" connect="1" arrows="1" fold="1" page="1" pageScale="1" pageWidth="827" pageHeight="1169" math="0" shadow="0">
      <root>
        <mxCell id="0" />
        <mxCell id="1" parent="0" />
        <mxCell id="4w28gFZ9ZuAEhgXsI9mW-2" value="Заголовок" style="swimlane;whiteSpace=wrap;html=1;" vertex="1" parent="1">
          <mxGeometry x="50" y="80" width="200" height="680" as="geometry" />
        </mxCell>
        <mxCell id="4w28gFZ9ZuAEhgXsI9mW-17" value="Акторы" style="text;html=1;align=center;verticalAlign=middle;resizable=0;points=[];autosize=1;strokeColor=none;fillColor=none;" vertex="1" parent="4w28gFZ9ZuAEhgXsI9mW-2">
          <mxGeometry x="65" y="50" width="70" height="30" as="geometry" />
        </mxCell>
        <mxCell id="4w28gFZ9ZuAEhgXsI9mW-20" value="Предусловие" style="text;html=1;align=center;verticalAlign=middle;resizable=0;points=[];autosize=1;strokeColor=none;fillColor=none;" vertex="1" parent="4w28gFZ9ZuAEhgXsI9mW-2">
          <mxGeometry x="50" y="90" width="100" height="30" as="geometry" />
        </mxCell>
        <mxCell id="4w28gFZ9ZuAEhgXsI9mW-22" value="Ограничения" style="text;html=1;align=center;verticalAlign=middle;resizable=0;points=[];autosize=1;strokeColor=none;fillColor=none;" vertex="1" parent="4w28gFZ9ZuAEhgXsI9mW-2">
          <mxGeometry x="50" y="130" width="100" height="30" as="geometry" />
        </mxCell>
        <mxCell id="4w28gFZ9ZuAEhgXsI9mW-24" value="Триггер" style="text;html=1;align=center;verticalAlign=middle;resizable=0;points=[];autosize=1;strokeColor=none;fillColor=none;" vertex="1" parent="4w28gFZ9ZuAEhgXsI9mW-2">
          <mxGeometry x="65" y="170" width="70" height="30" as="geometry" />
        </mxCell>
        <mxCell id="4w28gFZ9ZuAEhgXsI9mW-26" value="Основной сценарий" style="text;html=1;align=center;verticalAlign=middle;resizable=0;points=[];autosize=1;strokeColor=none;fillColor=none;" vertex="1" parent="4w28gFZ9ZuAEhgXsI9mW-2">
          <mxGeometry x="30" y="210" width="140" height="30" as="geometry" />
        </mxCell>
        <mxCell id="4w28gFZ9ZuAEhgXsI9mW-33" value="Альтернативный сценарий" style="text;html=1;align=center;verticalAlign=middle;resizable=0;points=[];autosize=1;strokeColor=none;fillColor=none;" vertex="1" parent="4w28gFZ9ZuAEhgXsI9mW-2">
          <mxGeometry x="10" y="450" width="180" height="30" as="geometry" />
        </mxCell>
        <mxCell id="4w28gFZ9ZuAEhgXsI9mW-41" value="Исключительный сценарий" style="text;html=1;align=center;verticalAlign=middle;resizable=0;points=[];autosize=1;strokeColor=none;fillColor=none;" vertex="1" parent="4w28gFZ9ZuAEhgXsI9mW-2">
          <mxGeometry x="10" y="610" width="180" height="30" as="geometry" />
        </mxCell>
        <mxCell id="4w28gFZ9ZuAEhgXsI9mW-16" value="Создание треда" style="swimlane;whiteSpace=wrap;html=1;" vertex="1" parent="1">
          <mxGeometry x="250" y="80" width="560" height="680" as="geometry" />
        </mxCell>
        <mxCell id="4w28gFZ9ZuAEhgXsI9mW-19" value="Пользователи мобильного приложения" style="text;html=1;align=center;verticalAlign=middle;resizable=0;points=[];autosize=1;strokeColor=none;fillColor=none;" vertex="1" parent="4w28gFZ9ZuAEhgXsI9mW-16">
          <mxGeometry x="155" y="50" width="250" height="30" as="geometry" />
        </mxCell>
        <mxCell id="4w28gFZ9ZuAEhgXsI9mW-21" value="Пользователь паходится на экране Calculate и авторизован." style="text;html=1;align=center;verticalAlign=middle;resizable=0;points=[];autosize=1;strokeColor=none;fillColor=none;" vertex="1" parent="4w28gFZ9ZuAEhgXsI9mW-16">
          <mxGeometry x="95" y="90" width="370" height="30" as="geometry" />
        </mxCell>
        <mxCell id="4w28gFZ9ZuAEhgXsI9mW-23" value="Пользователи не могут добавить пустой тред" style="text;html=1;align=center;verticalAlign=middle;resizable=0;points=[];autosize=1;strokeColor=none;fillColor=none;" vertex="1" parent="4w28gFZ9ZuAEhgXsI9mW-16">
          <mxGeometry x="140" y="130" width="280" height="30" as="geometry" />
        </mxCell>
        <mxCell id="4w28gFZ9ZuAEhgXsI9mW-25" value="Пользователь может решать математические проблемы, если с этим не справлется алгоритм" style="text;html=1;align=center;verticalAlign=middle;resizable=1;points=[];autosize=1;strokeColor=none;fillColor=none;fontStyle=0;movable=1;rotatable=1;deletable=1;editable=1;locked=0;connectable=1;" vertex="1" parent="4w28gFZ9ZuAEhgXsI9mW-16">
          <mxGeometry y="170" width="560" height="30" as="geometry" />
        </mxCell>
        <mxCell id="4w28gFZ9ZuAEhgXsI9mW-27" value="Пользователь находится на экране ask, который подсвечен иконкой в верхнем углу" style="text;html=1;align=center;verticalAlign=middle;resizable=1;points=[];autosize=1;strokeColor=none;fillColor=none;fontStyle=0;movable=1;rotatable=1;deletable=1;editable=1;locked=0;connectable=1;" vertex="1" parent="4w28gFZ9ZuAEhgXsI9mW-16">
          <mxGeometry x="30" y="210" width="500" height="30" as="geometry" />
        </mxCell>
        <mxCell id="4w28gFZ9ZuAEhgXsI9mW-28" value="Пользователь вносит данные о математической задаче в программу" style="text;html=1;align=center;verticalAlign=middle;resizable=1;points=[];autosize=1;strokeColor=none;fillColor=none;fontStyle=0;movable=1;rotatable=1;deletable=1;editable=1;locked=0;connectable=1;" vertex="1" parent="4w28gFZ9ZuAEhgXsI9mW-16">
          <mxGeometry x="75" y="250" width="420" height="30" as="geometry" />
        </mxCell>
        <mxCell id="4w28gFZ9ZuAEhgXsI9mW-29" value="Программа не справляется с решением задачи" style="text;html=1;align=center;verticalAlign=middle;resizable=1;points=[];autosize=1;strokeColor=none;fillColor=none;fontStyle=0;movable=1;rotatable=1;deletable=1;editable=1;locked=0;connectable=1;" vertex="1" parent="4w28gFZ9ZuAEhgXsI9mW-16">
          <mxGeometry x="140" y="290" width="290" height="30" as="geometry" />
        </mxCell>
        <mxCell id="4w28gFZ9ZuAEhgXsI9mW-30" value="Пользователь может нажать кнопку &quot;Создать тред&quot; в нижнем углу экрана calculate" style="text;html=1;align=center;verticalAlign=middle;resizable=1;points=[];autosize=1;strokeColor=none;fillColor=none;fontStyle=0;movable=1;rotatable=1;deletable=1;editable=1;locked=0;connectable=1;" vertex="1" parent="4w28gFZ9ZuAEhgXsI9mW-16">
          <mxGeometry x="35" y="330" width="500" height="30" as="geometry" />
        </mxCell>
        <mxCell id="4w28gFZ9ZuAEhgXsI9mW-31" value="После этого условие задачи загружаются в тред автоматически&amp;nbsp;" style="text;html=1;align=center;verticalAlign=middle;resizable=1;points=[];autosize=1;strokeColor=none;fillColor=none;fontStyle=0;movable=1;rotatable=1;deletable=1;editable=1;locked=0;connectable=1;" vertex="1" parent="4w28gFZ9ZuAEhgXsI9mW-16">
          <mxGeometry x="87" y="370" width="400" height="30" as="geometry" />
        </mxCell>
        <mxCell id="4w28gFZ9ZuAEhgXsI9mW-32" value="Пользователь может добавить свой текст для пояснения и отправить тред на форум" style="text;html=1;align=center;verticalAlign=middle;resizable=1;points=[];autosize=1;strokeColor=none;fillColor=none;fontStyle=0;movable=1;rotatable=1;deletable=1;editable=1;locked=0;connectable=1;" vertex="1" parent="4w28gFZ9ZuAEhgXsI9mW-16">
          <mxGeometry x="32" y="410" width="510" height="30" as="geometry" />
        </mxCell>
        <mxCell id="4w28gFZ9ZuAEhgXsI9mW-35" value="Повторяются шаги 1,2 из основного сценария" style="text;html=1;align=center;verticalAlign=middle;resizable=1;points=[];autosize=1;strokeColor=none;fillColor=none;fontStyle=0;movable=1;rotatable=1;deletable=1;editable=1;locked=0;connectable=1;" vertex="1" parent="4w28gFZ9ZuAEhgXsI9mW-16">
          <mxGeometry x="140" y="450" width="280" height="30" as="geometry" />
        </mxCell>
        <mxCell id="4w28gFZ9ZuAEhgXsI9mW-36" value="Программа справляется с решением задачи" style="text;html=1;align=center;verticalAlign=middle;resizable=1;points=[];autosize=1;strokeColor=none;fillColor=none;fontStyle=0;movable=1;rotatable=1;deletable=1;editable=1;locked=0;connectable=1;" vertex="1" parent="4w28gFZ9ZuAEhgXsI9mW-16">
          <mxGeometry x="140" y="489.5" width="280" height="30" as="geometry" />
        </mxCell>
        <mxCell id="4w28gFZ9ZuAEhgXsI9mW-39" value="Пользователь может создать тред, если его не устроило решение программы" style="text;html=1;align=center;verticalAlign=middle;resizable=1;points=[];autosize=1;strokeColor=none;fillColor=none;fontStyle=0;movable=1;rotatable=1;deletable=1;editable=1;locked=0;connectable=1;" vertex="1" parent="4w28gFZ9ZuAEhgXsI9mW-16">
          <mxGeometry x="45" y="530" width="470" height="30" as="geometry" />
        </mxCell>
        <mxCell id="4w28gFZ9ZuAEhgXsI9mW-40" value="Повторяются шаги 4-6 из основного сценария" style="text;html=1;align=center;verticalAlign=middle;resizable=1;points=[];autosize=1;strokeColor=none;fillColor=none;fontStyle=0;movable=1;rotatable=1;deletable=1;editable=1;locked=0;connectable=1;" vertex="1" parent="4w28gFZ9ZuAEhgXsI9mW-16">
          <mxGeometry x="135" y="570" width="290" height="30" as="geometry" />
        </mxCell>
        <mxCell id="4w28gFZ9ZuAEhgXsI9mW-42" value="Пользователь может создать тред с нуля, вписав условие задачи вручную" style="text;html=1;align=center;verticalAlign=middle;resizable=1;points=[];autosize=1;strokeColor=none;fillColor=none;fontStyle=0;movable=1;rotatable=1;deletable=1;editable=1;locked=0;connectable=1;" vertex="1" parent="4w28gFZ9ZuAEhgXsI9mW-16">
          <mxGeometry x="55" y="610" width="450" height="30" as="geometry" />
        </mxCell>
        <mxCell id="4w28gFZ9ZuAEhgXsI9mW-43" value="Таким образом решение программы пропускается" style="text;html=1;align=center;verticalAlign=middle;resizable=1;points=[];autosize=1;strokeColor=none;fillColor=none;fontStyle=0;movable=1;rotatable=1;deletable=1;editable=1;locked=0;connectable=1;" vertex="1" parent="4w28gFZ9ZuAEhgXsI9mW-16">
          <mxGeometry x="130" y="650" width="310" height="30" as="geometry" />
        </mxCell>
        <mxCell id="4w28gFZ9ZuAEhgXsI9mW-18" value="&lt;font style=&quot;font-size: 18px;&quot;&gt;User story&lt;/font&gt;&lt;div&gt;&lt;br&gt;&#x9;&#x9;&lt;br&gt;&#x9;&lt;br&gt;&#x9;&lt;br&gt;&#x9;&#x9;&lt;div title=&quot;Page 1&quot; class=&quot;page&quot;&gt;&lt;br&gt;&#x9;&#x9;&#x9;&lt;div style=&quot;&quot; class=&quot;section&quot;&gt;&lt;span style=&quot;background-color: rgb(255, 242, 204);&quot;&gt;&lt;br&gt;&#x9;&#x9;&#x9;&#x9;&lt;/span&gt;&lt;div style=&quot;&quot; class=&quot;layoutArea&quot;&gt;&lt;span style=&quot;background-color: rgb(255, 242, 204);&quot;&gt;&lt;br&gt;&#x9;&#x9;&#x9;&#x9;&#x9;&lt;/span&gt;&lt;div style=&quot;&quot; class=&quot;column&quot;&gt;&lt;p style=&quot;&quot;&gt;&lt;font style=&quot;background-color: rgb(255, 242, 204);&quot; size=&quot;3&quot;&gt;&lt;span style=&quot;color: rgb(17, 39, 45);&quot;&gt;Как пользователь приложения &lt;/span&gt;&lt;span style=&quot;color: rgb(17, 39, 45);&quot;&gt;Photomath,&lt;br&gt;&lt;/span&gt;&lt;span style=&quot;color: rgb(17, 39, 45);&quot;&gt;&amp;nbsp;я хотел бы добавить возможность создавать тред&lt;br&gt;на форуме внутри приложения&lt;/span&gt;&lt;span style=&quot;color: rgb(17, 39, 45);&quot;&gt;, чтобы&lt;/span&gt;&lt;span style=&quot;color: rgb(17, 39, 45);&quot;&gt;&amp;nbsp;другие&lt;br&gt;пользователи могли бы помогать с решением&lt;br&gt;математических задач&lt;/span&gt;&lt;span style=&quot;color: rgb(17, 39, 45);&quot;&gt;.&amp;nbsp;&lt;/span&gt;&lt;/font&gt;&lt;/p&gt;&lt;br&gt;&#x9;&#x9;&#x9;&#x9;&#x9;&lt;/div&gt;&lt;br&gt;&#x9;&#x9;&#x9;&#x9;&lt;/div&gt;&lt;br&gt;&#x9;&#x9;&#x9;&lt;/div&gt;&lt;br&gt;&#x9;&#x9;&lt;/div&gt;&lt;/div&gt;" style="rounded=0;whiteSpace=wrap;html=1;fillColor=#fff2cc;strokeColor=#d6b656;" vertex="1" parent="1">
          <mxGeometry x="250" y="790" width="320" height="480" as="geometry" />
        </mxCell>
      </root>
    </mxGraphModel>
  </diagram>
</mxfile>
